<?xml version="1.0"?><svg width="58.282" height="58.282" xmlns="http://www.w3.org/2000/svg">
 <title>email logo</title>

 <g>
  <title>Layer 1</title>
  <metadata id="CorelCorpID_0Corel-Layer"/>
  <path fill="#ffffff" class="fil1" d="m29.1409,0l0.000431,0l0,0.00679c8.049969,0.00012 15.334999,3.26003 20.6045,8.52962c5.269279,5.26934 8.529068,12.553899 8.529308,20.603601l0.00679,0l0,0.000919l0,0.000429l-0.00679,0c-0.000118,8.050032 -3.260029,15.335001 -8.529617,20.604502c-5.269413,5.269279 -12.554001,8.529068 -20.603701,8.529308l0,0.00679l-0.000921,0l-0.000441,0l0,-0.00679c-8.049969,-0.000118 -15.334899,-3.260029 -20.604399,-8.529621c-5.26928,-5.269409 -8.52907,-12.553997 -8.52931,-20.603699l-0.00678,0l0,-0.000919l0,-0.000431l0.00678,0c0.00013,-8.049969 3.26003,-15.334899 8.52962,-20.604399c5.26934,-5.26928 12.553899,-8.52907 20.603601,-8.52931l0,-0.00679l0.000929,0zm0.000431,3.47579l0,0.00679l-0.000431,0l-0.000929,0l0,-0.00679c-7.079182,0.00018 -13.493901,2.87527 -18.141301,7.52262c-4.64766,4.6476 -7.52287,11.0626 -7.52293,18.1421l0.00679,0l0,0.000429l0,0.000931l-0.00679,0c0.00019,7.079229 2.87527,13.493898 7.52262,18.14139c4.6476,4.647659 11.062601,7.522869 18.142099,7.52293l0,-0.006779l0.000431,0l0.000931,0l0,0.006779c7.079241,-0.000179 13.493898,-2.875271 18.141397,-7.522621c4.647663,-4.647598 7.522873,-11.062599 7.52293,-18.142199l-0.00679,0l0,-0.000431l0,-0.000919l0.00679,0c-0.000187,-7.07918 -2.875267,-13.4939 -7.522617,-18.1413c-4.647602,-4.64766 -11.062603,-7.52287 -18.1422,-7.52293z" id="svg_1"/>
  <text fill="#ffffff" stroke="#ffffff" stroke-width="0" x="28.016" y="39.5898" id="svg_4" font-size="35" font-family="Arial" text-anchor="middle" xml:space="preserve" transform="matrix(1, 0, 0, 1.0266, 0, -1.28906)" font-weight="bold">@</text>
 </g>
</svg>